HIERARCHY
ROOT Pelvis
{
	OFFSET 0.000000 0.000000 0.000000
	CHANNELS 6 Xposition Yposition Zposition Xrotation Yrotation Zrotation
	JOINT LeftUpLeg_virtual
	{
		OFFSET 0.000000 0.000000 0.000000
		CHANNELS 3 Xrotation Yrotation Zrotation
		JOINT LeftUpLeg
		{
			OFFSET 18.735201 -5.666702 -4.541200
			CHANNELS 3 Xrotation Yrotation Zrotation
			JOINT LeftLeg
			{
				OFFSET -0.021200 -31.938179 0.493100
				CHANNELS 3 Xrotation Yrotation Zrotation
				JOINT LeftFoot
				{
					OFFSET 0.021200 -31.938179 -4.336299
					CHANNELS 3 Xrotation Yrotation Zrotation
					JOINT LeftToeBase
					{
						OFFSET 0.943001 -26.722000 15.023500
						CHANNELS 3 Xrotation Yrotation Zrotation
						End Site
						{
							OFFSET 0 0 0
						}
					}
				}
			}
		}
	}
	JOINT RightUpLeg_virtual
	{
		OFFSET 0.000000 0.000000 0.000000
		CHANNELS 3 Xrotation Yrotation Zrotation
		JOINT RightUpLeg
		{
			OFFSET -18.735201 -5.666702 -4.541200
			CHANNELS 3 Xrotation Yrotation Zrotation
			JOINT RightLeg
			{
				OFFSET 0.018946 -31.938133 0.493100
				CHANNELS 3 Xrotation Yrotation Zrotation
				JOINT RightFoot
				{
					OFFSET -0.018946 -31.938126 -4.336299
					CHANNELS 3 Xrotation Yrotation Zrotation
					JOINT RightToeBase
					{
						OFFSET -0.943001 -26.722004 15.023500
						CHANNELS 3 Xrotation Yrotation Zrotation
						End Site
						{
							OFFSET 0 0 0
						}
					}
				}
			}
		}
	}
	JOINT Hips_virtual
	{
		OFFSET 0.000000 0.000000 0.000000
		CHANNELS 3 Xrotation Yrotation Zrotation
		JOINT Hips
		{
			OFFSET -0.000000 -0.000000 -0.000000
			CHANNELS 3 Xrotation Yrotation Zrotation
			JOINT Spine
			{
				OFFSET 0.000000 10.199997 -0.299500
				CHANNELS 3 Xrotation Yrotation Zrotation
				JOINT Spine1
				{
					OFFSET 0.000000 11.900002 -1.516600
					CHANNELS 3 Xrotation Yrotation Zrotation
					JOINT Spine2
					{
						OFFSET 0.000000 13.600006 -2.842500
						CHANNELS 3 Xrotation Yrotation Zrotation
						JOINT Neck_virtual
						{
							OFFSET 0.000000 0.000000 0.000000
							CHANNELS 3 Xrotation Yrotation Zrotation
							JOINT Neck
							{
								OFFSET 0.000000 9.624100 -2.890100
								CHANNELS 3 Xrotation Yrotation Zrotation
								JOINT Head
								{
									OFFSET 0.000000 14.068802 -1.351900
									CHANNELS 3 Xrotation Yrotation Zrotation
									End Site
									{
										OFFSET 0 0 0
									}
								}
							}
						}
						JOINT LeftShoulder_virtual
						{
							OFFSET 0.000000 0.000000 0.000000
							CHANNELS 3 Xrotation Yrotation Zrotation
							JOINT LeftShoulder
							{
								OFFSET 15.263000 10.923401 -0.547700
								CHANNELS 3 Xrotation Yrotation Zrotation
								JOINT LeftArm
								{
									OFFSET 25.438599 -2.830597 -13.032500
									CHANNELS 3 Xrotation Yrotation Zrotation
									JOINT LeftForeArm
									{
										OFFSET 29.960503 0.000000 0.000000
										CHANNELS 3 Xrotation Yrotation Zrotation
										JOINT LeftHand
										{
											OFFSET 27.849251 0.000000 0.000000
											CHANNELS 3 Xrotation Yrotation Zrotation
											End Site
											{
												OFFSET 0 0 0
											}
										}
									}
								}
							}
						}
						JOINT RightShoulder_virtual
						{
							OFFSET 0.000000 0.000000 0.000000
							CHANNELS 3 Xrotation Yrotation Zrotation
							JOINT RightShoulder
							{
								OFFSET -15.263000 10.923401 -0.547700
								CHANNELS 3 Xrotation Yrotation Zrotation
								JOINT RightArm
								{
									OFFSET -25.438599 -2.830597 -13.032500
									CHANNELS 3 Xrotation Yrotation Zrotation
									JOINT RightForeArm
									{
										OFFSET -29.960503 0.000000 0.000000
										CHANNELS 3 Xrotation Yrotation Zrotation
										JOINT RightHand
										{
											OFFSET -27.849251 0.000000 0.000000
											CHANNELS 3 Xrotation Yrotation Zrotation
											End Site
											{
												OFFSET 0 0 0
											}
										}
									}
								}
							}
						}
					}
				}
			}
		}
	}
}
MOTION
Frames: 9
Frame Time: 0.03333333
-1.143526 86.504639 3.983463 0.000000 0.000000 0.000000 -0.669235 -15.822849 -1.491568 -36.494923 15.775186 15.897240 55.354073 3.355484 10.526353 -19.974164 2.779546 -13.299739 0.000000 0.000000 0.000000 -0.669235 -15.822849 -1.491568 -30.497730 -20.222203 -12.498554 53.122554 -2.985063 -10.362316 -23.288667 -3.292414 12.514489 0.000000 0.000000 0.000000 -0.669235 -15.822849 -1.491568 0.000000 -0.000002 0.000000 3.775193 1.222708 0.083447 2.523602 1.177438 -0.059023 0.000000 0.000000 0.000000 2.503914 1.224027 -0.090937 0.191493 0.325015 1.940260 0.000000 0.000000 0.000000 2.503914 1.224027 -0.090937 0.513443 1.082368 14.986781 -49.547456 -53.697202 -56.631991 -0.000004 -52.589544 0.000000 0.000000 0.000000 0.000000 2.503914 1.224027 -0.090937 0.384722 -1.325532 -0.769391 -176.134009 84.807932 169.697607 0.000001 25.659977 -0.000000 0.000000 0.000000 0.000000 
-1.104662 86.480011 4.006042 0.000000 0.000000 0.000000 -0.672992 -15.770591 -1.480102 -36.503755 15.708262 15.805503 55.437015 3.411703 10.523692 -20.024665 2.787431 -13.284674 0.000000 0.000000 0.000000 -0.672992 -15.770591 -1.480102 -30.587240 -20.394301 -12.697302 53.225885 -2.821966 -10.360092 -23.354864 -3.261668 12.486657 0.000000 0.000000 0.000000 -0.672992 -15.770591 -1.480102 0.000000 0.000001 0.000000 3.766886 1.202758 0.129400 2.514745 1.164374 -0.024040 0.000000 0.000000 0.000000 2.495215 1.211956 -0.055855 0.186325 0.328180 1.934173 0.000000 0.000000 0.000000 2.495215 1.211956 -0.055855 0.748155 0.781685 15.125092 -49.125883 -53.329905 -56.178873 -0.000017 -52.952486 -0.000012 0.000000 0.000000 0.000000 2.495215 1.211956 -0.055855 0.387291 -1.315634 -0.755623 -175.362826 84.851399 169.029833 0.000000 25.704915 0.000000 0.000000 0.000000 0.000000 
-1.057834 86.452827 4.032825 0.000000 0.000000 0.000000 -0.691055 -15.714727 -1.471927 -36.490313 15.613471 15.687678 55.530756 3.499043 10.520485 -20.084851 2.801920 -13.277881 0.000000 0.000000 0.000000 -0.691055 -15.714727 -1.471927 -30.672778 -20.578197 -12.919116 53.340345 -2.641232 -10.357459 -23.426920 -3.229427 12.460264 0.000000 0.000000 0.000000 -0.691055 -15.714727 -1.471927 0.000000 0.000000 0.000000 3.766354 1.185908 0.183159 2.511989 1.154429 0.015427 0.000000 0.000000 0.000000 2.492560 1.203282 -0.016407 0.179335 0.329905 1.926262 0.000000 0.000000 0.000000 2.492560 1.203282 -0.016407 0.696101 0.770072 15.279770 -49.162848 -53.221531 -56.426085 0.000000 -52.964726 -0.000005 0.000000 0.000000 0.000000 2.492560 1.203282 -0.016407 0.383950 -1.340513 -0.713610 -174.944955 84.873706 168.720330 0.000001 25.763217 -0.000000 0.000000 0.000000 0.000000 
-0.998894 86.424057 4.063639 0.000000 0.000000 0.000000 -0.725567 -15.666832 -1.464390 -36.447829 15.504774 15.542657 55.631013 3.621796 10.516657 -20.157720 2.820380 -13.277097 0.000000 0.000000 0.000000 -0.725567 -15.666832 -1.464390 -30.753087 -20.744104 -13.155293 53.464306 -2.454021 -10.354760 -23.496237 -3.201916 12.443608 0.000000 0.000000 0.000000 -0.725567 -15.666832 -1.464390 0.000000 0.000000 0.000000 3.773638 1.173643 0.248386 2.515586 1.148448 0.062321 0.000000 0.000000 0.000000 2.496204 1.198885 0.030350 0.171261 0.330806 1.913155 0.000000 0.000000 0.000000 2.496204 1.198885 0.030350 0.649403 0.743676 15.445090 -49.232185 -53.041289 -56.699415 -0.000000 -52.985121 -0.000001 0.000000 0.000000 0.000000 2.496204 1.198885 0.030350 0.376739 -1.384607 -0.671987 -174.708056 84.878836 168.586445 -0.000001 25.831330 0.000001 0.000000 0.000000 0.000000 
-0.921849 86.394798 4.097172 0.000000 0.000000 0.000000 -0.775269 -15.644280 -1.453463 -36.374200 15.405451 15.373166 55.732544 3.783108 10.512003 -20.246738 2.837781 -13.277461 0.000000 0.000000 0.000000 -0.775269 -15.644280 -1.453463 -30.834107 -20.859302 -13.398130 53.595186 -2.268709 -10.352180 -23.549604 -3.183233 12.444334 0.000000 0.000000 0.000000 -0.775269 -15.644280 -1.453463 0.000000 -0.000001 0.000000 3.787333 1.170021 0.328040 2.524802 1.149004 0.120567 0.000000 0.000000 0.000000 2.505400 1.201388 0.088319 0.162468 0.331605 1.891773 0.000000 0.000000 0.000000 2.505400 1.201388 0.088319 0.614099 0.699946 15.619084 -49.322551 -52.782824 -56.988691 0.000014 -53.012756 0.000014 0.000000 0.000000 0.000000 2.505400 1.201388 0.088319 0.369205 -1.423146 -0.665888 -174.470270 84.880748 168.433476 0.000000 25.903088 0.000000 0.000000 0.000000 0.000000 
-0.819300 86.365013 4.130909 0.000000 0.000000 0.000000 -0.836283 -15.668309 -1.435075 -36.272276 15.339247 15.182310 55.833801 3.989925 10.506493 -20.357036 2.848696 -13.274320 0.000000 0.000000 0.000000 -0.836283 -15.668309 -1.435075 -30.932513 -20.898135 -13.645782 53.734813 -2.085259 -10.350119 -23.573110 -3.172431 12.465847 0.000000 0.000000 0.000000 -0.836283 -15.668309 -1.435075 0.000000 -0.000002 0.000000 3.806268 1.182401 0.423885 2.539427 1.161263 0.194697 0.000000 0.000000 0.000000 2.519834 1.216079 0.161964 0.152866 0.333015 1.860621 0.000000 0.000000 0.000000 2.519834 1.216079 0.161964 0.593177 0.636717 15.806577 -49.415336 -52.456481 -57.281149 -0.000006 -53.045298 -0.000002 0.000000 0.000000 0.000000 2.519834 1.216079 0.161964 0.365194 -1.430836 -0.724951 -174.078176 84.900727 168.096187 0.000001 25.973032 0.000000 0.000000 0.000000 0.000000 
-0.682801 86.333611 4.161291 0.000000 0.000000 0.000000 -0.902739 -15.760487 -1.406191 -36.147356 15.320572 14.969140 55.936196 4.257664 10.499931 -20.493592 2.850101 -13.266392 0.000000 0.000000 0.000000 -0.902739 -15.760487 -1.406191 -31.073724 -20.848638 -13.904681 53.887556 -1.892401 -10.348762 -23.552826 -3.162361 12.506085 0.000000 0.000000 0.000000 -0.902739 -15.760487 -1.406191 0.000000 0.000001 0.000000 3.830984 1.221993 0.536485 2.560944 1.193398 0.289371 0.000000 0.000000 0.000000 2.540843 1.251281 0.255827 0.142100 0.335583 1.821182 0.000000 0.000000 0.000000 2.540843 1.251281 0.255827 0.583202 0.552462 16.019210 -49.494553 -52.085725 -57.569288 -0.000022 -53.080177 -0.000021 0.000000 0.000000 0.000000 2.540843 1.251281 0.255827 0.367400 -1.392475 -0.859875 -173.383888 84.958729 167.419234 0.000000 26.040311 0.000000 0.000000 0.000000 0.000000 
-0.503244 86.298759 4.184168 0.000000 0.000000 0.000000 -0.966892 -15.938533 -1.364372 -36.005568 15.347981 14.723747 56.042416 4.611527 10.491916 -20.658923 2.843181 -13.256995 0.000000 0.000000 0.000000 -0.966892 -15.938533 -1.364372 -31.289124 -20.712357 -14.189238 54.059332 -1.670216 -10.347980 -23.475961 -3.142083 12.559122 0.000000 0.000000 0.000000 -0.966892 -15.938533 -1.364372 0.000000 -0.000001 0.000000 3.863879 1.302484 0.665346 2.592533 1.255809 0.408473 0.000000 0.000000 0.000000 2.571366 1.317640 0.373637 0.130335 0.339274 1.778373 0.000000 0.000000 0.000000 2.571366 1.317640 0.373637 0.574892 0.444340 16.271339 -49.548880 -51.702008 -57.845849 0.000003 -53.116250 0.000002 0.000000 0.000000 0.000000 2.571366 1.317640 0.373637 0.376125 -1.311449 -1.052056 -172.239776 85.063545 166.254345 0.000000 26.110941 0.000001 0.000000 0.000000 0.000000 
-0.272182 86.256866 4.195299 0.000000 0.000000 0.000000 -1.018632 -16.210798 -1.305537 -35.855030 15.401945 14.424077 56.156801 5.083571 10.482335 -20.851712 2.834213 -13.253644 0.000000 0.000000 0.000000 -1.018632 -16.210798 -1.305537 -31.613100 -20.497454 -14.518032 54.260819 -1.398782 -10.347842 -23.335130 -3.101974 12.618744 0.000000 0.000000 0.000000 -1.018632 -16.210798 -1.305537 0.000000 -0.000001 0.000000 3.908037 1.436959 0.809419 2.637587 1.358617 0.553766 0.000000 0.000000 0.000000 2.614524 1.425411 0.517045 0.118686 0.343195 1.740859 0.000000 0.000000 0.000000 2.614524 1.425411 0.517045 0.558450 0.306560 16.573089 -49.569791 -51.340476 -58.091913 0.000015 -53.154004 0.000017 0.000000 0.000000 0.000000 2.614524 1.425411 0.517045 0.388354 -1.213216 -1.252905 -170.525453 85.204124 164.486473 0.000001 26.197611 -0.000001 0.000000 0.000000 0.000000 
